# xmcd
#
# Track frame offsets: 
#        150
#        22437
#        37089
#        56549
#        75990
#        92972
#        109962
#        128589
#        143330
#        159154
#
# Disc length: 2333 seconds
#
# Revision: 0
# Processed by: cddbd v1.5.2PL0 Copyright (c) Steve Scherf et al.
# Submitted via: ExactAudioCopy v1.2
#
DISCID=7b091b0a
DTITLE=Tomiko Dixon - Blues Arising
DYEAR=2019
DGENRE=Blues
TTITLE0=Little Red Rooster
TTITLE1=I'm Ready
TTITLE2=It Don't Make Sense, You Can't Make Peace
TTITLE3=It Don't Make Sense, You Can't Make Peace (Instrumental)
TTITLE4=You Don't Want to Mess with the IRS
TTITLE5=You Don't Want to Mess with the IRS (Instrumental)
TTITLE6=Wang Dang Doodle
TTITLE7=Heartache Blues
TTITLE8=A New Day Arising
TTITLE9=A New Day Arising (Instrumental)
EXTD=
EXTT0=
EXTT1=
EXTT2=
EXTT3=
EXTT4=
EXTT5=
EXTT6=
EXTT7=
EXTT8=
EXTT9=
PLAYORDER=
